<?xml version="1.0" standalone="no"?>
<!DOCTYPE svg PUBLIC "-//W3C//DTD SVG 20010904//EN"
 "http://www.w3.org/TR/2001/REC-SVG-20010904/DTD/svg10.dtd">
<svg version="1.0" xmlns="http://www.w3.org/2000/svg"
 width="512.000000pt" height="512.000000pt" viewBox="0 0 512.000000 512.000000"
 preserveAspectRatio="xMidYMid meet">

<g transform="translate(0.000000,512.000000) scale(0.100000,-0.100000)"
fill="#000000" stroke="none">
<path fill="#D4A301" d="M2285 4675 c-640 -84 -1211 -457 -1551 -1015 -278 -456 -372 -1020
-258 -1550 86 -400 284 -760 579 -1055 243 -244 520 -415 844 -521 222 -73
427 -104 692 -104 l179 0 0 210 0 210 -117 0 c-248 0 -460 32 -647 97 -591
205 -1017 703 -1127 1319 -30 167 -30 421 0 588 182 1020 1218 1646 2203 1330
603 -193 1047 -703 1160 -1335 21 -117 22 -152 23 -609 0 -452 -1 -489 -19
-540 -26 -76 -111 -160 -186 -186 -169 -58 -350 23 -410 183 -19 51 -20 78
-20 471 0 229 -5 455 -10 502 -27 237 -126 450 -287 621 -92 97 -180 161 -308
224 -303 149 -627 149 -930 0 -230 -113 -391 -277 -501 -509 -137 -292 -134
-617 11 -911 113 -230 277 -391 509 -501 332 -157 721 -127 1028 80 l66 45 17
-75 c47 -211 200 -401 401 -500 121 -59 208 -77 354 -72 197 8 341 71 486 213
92 90 149 181 191 300 l28 80 3 505 c2 340 0 541 -8 614 -53 491 -264 930
-615 1281 -348 349 -786 561 -1270 615 -122 13 -387 11 -510 -5z m410 -1490
c238 -50 440 -252 490 -490 95 -454 -306 -855 -760 -760 -182 38 -352 170
-434 335 -94 192 -94 388 0 580 126 255 419 395 704 335z"/>
</g>
</svg>
