<?xml version="1.0" standalone="no"?>
<!DOCTYPE svg PUBLIC "-//W3C//DTD SVG 20010904//EN"
 "http://www.w3.org/TR/2001/REC-SVG-20010904/DTD/svg10.dtd">
<svg version="1.0" xmlns="http://www.w3.org/2000/svg"
 width="512.000000pt" height="512.000000pt" viewBox="0 0 512.000000 512.000000"
 preserveAspectRatio="xMidYMid meet">

<g transform="translate(0.000000,512.000000) scale(0.100000,-0.100000)"
fill="#000000" stroke="none">
<path fill="#D4A301" d="M2330 5110 c-494 -48 -950 -230 -1350 -538 -195 -150 -448 -432 -594
-662 -63 -99 -186 -351 -230 -471 -49 -134 -102 -340 -128 -499 -31 -195 -31
-565 0 -760 26 -159 79 -365 128 -499 44 -120 167 -372 230 -471 204 -321 503
-620 824 -824 99 -63 351 -186 471 -230 247 -91 541 -146 784 -149 144 -2 151
-1 184 22 35 25 70 90 71 130 0 40 -37 104 -75 130 -31 21 -51 24 -187 32
-179 9 -310 28 -464 68 -882 230 -1541 978 -1659 1884 -20 154 -19 421 1 579
129 1005 934 1805 1946 1934 179 22 492 16 660 -15 781 -142 1416 -660 1708
-1396 46 -115 96 -297 122 -438 30 -166 33 -524 5 -662 -42 -206 -143 -447
-252 -602 -72 -101 -219 -247 -310 -308 -143 -96 -295 -150 -457 -164 -43 -4
-78 -6 -78 -4 0 1 20 15 43 32 89 61 200 191 239 278 22 49 78 325 78 383 0
72 -86 149 -255 230 -222 106 -412 141 -501 92 -27 -14 -34 -34 -78 -216 -41
-170 -60 -215 -101 -235 -39 -19 -103 -2 -170 44 -52 36 -1082 1064 -1128
1126 -37 49 -59 117 -52 156 9 51 49 71 238 118 205 52 204 52 219 79 48 88
12 284 -92 501 -79 165 -159 255 -226 255 -52 0 -314 -51 -371 -72 -77 -28
-203 -127 -272 -214 -129 -163 -196 -408 -172 -626 25 -218 95 -400 226 -583
141 -197 782 -875 1040 -1101 326 -283 673 -471 1010 -545 81 -18 134 -23 275
-23 236 -1 361 24 565 116 301 136 578 419 735 752 154 325 213 668 180 1031
-47 507 -225 958 -538 1365 -150 195 -432 448 -662 594 -99 63 -351 186 -471
230 -135 49 -341 102 -494 126 -147 23 -475 34 -615 20z"/>
</g>
</svg>
